<svg xmlns="http://www.w3.org/2000/svg" width="707" height="353" viewBox="0 0 707 353" version="1.1">
	<path d="M 307.250 7.119 C 303.354 8.244, 303.445 6.886, 305.489 33.277 C 306.307 43.850, 307.353 60.402, 307.812 70.060 C 308.272 79.719, 308.978 88.156, 309.383 88.810 C 310.432 90.508, 317.512 90.293, 318.984 88.519 C 319.774 87.567, 319.996 85.512, 319.605 82.769 C 319.271 80.421, 318.566 67.475, 318.038 54 C 316.660 18.773, 315.696 8.982, 313.443 7.335 C 311.393 5.835, 311.662 5.845, 307.250 7.119 M 327.113 6.909 C 326.001 7.613, 325.873 9.646, 326.469 17.144 C 326.878 22.290, 327.503 39.190, 327.857 54.700 C 328.237 71.352, 328.909 83.276, 329.500 83.819 C 330.050 84.325, 332.255 84.515, 334.400 84.242 L 338.301 83.746 337.738 47.623 C 337.399 25.942, 336.750 10.401, 336.112 8.750 C 335.251 6.520, 334.430 6.003, 331.775 6.015 C 329.974 6.024, 327.876 6.426, 327.113 6.909 M 347.526 7.958 C 347.200 8.485, 347.484 26.035, 348.155 46.958 L 349.377 85 352.938 84.985 C 359.683 84.956, 359.374 87.103, 358.564 45.867 C 358.161 25.335, 357.618 8.190, 357.357 7.768 C 356.671 6.658, 348.228 6.822, 347.526 7.958 M 370.736 9.206 C 369.097 10.409, 368.991 13.150, 369.236 48 L 369.500 85.500 375.090 85.795 L 380.679 86.090 381.329 65.221 C 381.925 46.075, 381.125 26.412, 379.223 13.500 C 378.541 8.873, 378.263 8.478, 375.493 8.206 C 373.847 8.044, 371.706 8.494, 370.736 9.206 M 394.419 31.917 C 394.188 32.146, 394 38.501, 394 46.040 L 394 59.747 398.250 59.700 C 400.587 59.674, 412.697 59.731, 425.160 59.826 L 447.820 60 452.958 64.061 C 455.784 66.295, 458.552 69.322, 459.110 70.789 C 461.371 76.736, 463.898 137.738, 462.076 142.389 C 461.453 143.977, 461.069 145.396, 461.222 145.540 C 461.375 145.685, 467.846 146.127, 475.602 146.522 C 489.624 147.237, 489.707 147.228, 490.286 145.012 C 490.988 142.332, 489.341 87.809, 488.112 73 C 487.247 62.579, 486.332 59.505, 481.614 51.167 C 478.432 45.543, 469.224 37.303, 462.671 34.215 C 457.558 31.805, 457.151 31.777, 426.169 31.639 C 408.936 31.563, 394.649 31.688, 394.419 31.917 M 234.650 37.181 C 227.876 38.133, 222.373 40.507, 216.235 45.126 C 210.282 49.605, 207.296 53.860, 204.113 62.403 C 201.677 68.940, 201.680 72.345, 204.158 120.250 L 205.283 142 215.017 142 C 220.370 142, 226.188 141.712, 227.946 141.361 L 231.141 140.722 230.429 108.111 L 229.716 75.500 234.100 71.248 C 236.512 68.909, 239.838 66.587, 241.492 66.088 C 243.146 65.588, 254.659 64.919, 267.076 64.600 C 279.493 64.281, 291.036 63.743, 292.726 63.405 L 295.800 62.790 296.214 50.145 C 296.441 43.190, 296.427 37.109, 296.181 36.631 C 295.677 35.650, 242.140 36.129, 234.650 37.181 M 538.198 50.464 C 536.835 53.457, 537.008 53.569, 544.371 54.462 C 552.844 55.490, 557.967 57.576, 562.373 61.793 C 568.021 67.199, 570.083 72.553, 570.668 83.337 C 571.154 92.289, 571.086 92.649, 567.721 98.988 C 565.207 103.722, 563.038 106.289, 559.693 108.488 C 554.999 111.572, 553.715 114.689, 556.266 116.806 C 558.321 118.511, 565.570 114.128, 570.001 108.500 C 577.471 99.012, 579.426 94.362, 579.465 86 C 579.564 64.808, 564.324 48, 545.011 48 C 539.934 48, 539.200 48.265, 538.198 50.464 M 525.341 54.024 C 518.934 57.029, 511.648 65.848, 509.658 73.008 C 507.584 80.466, 507.577 84.230, 509.622 93.303 C 511.602 102.092, 512.811 104.521, 517.397 108.929 C 520.700 112.104, 521.149 112.258, 523.465 111.019 C 527.437 108.893, 527.515 106.551, 523.748 102.557 C 517.026 95.430, 515.103 84.479, 518.562 73.027 C 520.189 67.643, 521.489 65.640, 526.658 60.556 C 531.757 55.541, 532.581 54.285, 531.450 53.250 C 529.798 51.738, 530.369 51.665, 525.341 54.024 M 152.226 57.659 C 140.757 63.313, 138.581 79.870, 148.153 88.654 C 150.803 91.086, 157.309 94, 160.089 94 C 161.757 94, 161.962 95.083, 162.217 105.238 C 162.469 115.262, 162.700 116.514, 164.354 116.831 C 166.107 117.167, 166.169 116.552, 165.490 105.678 L 164.771 94.170 168.635 91.705 C 176.358 86.778, 177.500 84.754, 177.500 75.989 C 177.500 67.082, 176.378 64.851, 169.079 59.250 C 165.675 56.637, 163.929 56.004, 160.172 56.023 C 157.603 56.035, 154.027 56.772, 152.226 57.659 M 539.667 65.667 C 538.434 66.900, 538.985 69.020, 541.544 72.886 C 544.020 76.628, 544.061 76.965, 543.087 85.615 C 542.537 90.502, 541.528 96.398, 540.845 98.718 C 539.423 103.552, 539.908 104.491, 543.376 103.620 C 547.691 102.537, 551.890 98.043, 555.481 90.663 C 559.470 82.467, 560.187 84.503, 556.481 93.500 C 555.121 96.800, 554.007 99.550, 554.005 99.611 C 554.002 99.673, 555.105 99.511, 556.456 99.253 C 557.807 98.995, 559.570 97.779, 560.374 96.551 C 562.690 93.017, 564.222 85.997, 563.508 82.189 C 562.621 77.465, 553.015 67.377, 548.104 66.012 C 543.925 64.851, 540.617 64.716, 539.667 65.667 M 153.455 68.455 C 149.799 72.110, 150.389 76.359, 155.299 81.750 C 158.807 85.601, 166.390 83.971, 167.308 79.168 C 169.247 69.025, 160.020 61.890, 153.455 68.455 M 389.789 69.709 C 389.580 70.144, 389.280 75.275, 389.121 81.112 C 388.836 91.616, 388.861 91.745, 391.551 93.862 C 393.046 95.038, 394.772 96.001, 395.385 96.001 C 396.472 96.002, 397.369 96.689, 407.257 105.084 C 412.839 109.823, 427.657 127.954, 429.111 131.823 C 429.664 133.296, 431.213 136.830, 432.553 139.678 C 433.894 142.525, 435.457 147.025, 436.027 149.678 C 437.651 157.224, 438.395 157.872, 441.375 154.330 C 442.773 152.670, 446.564 150.122, 449.800 148.670 L 455.685 146.029 453.975 138.265 C 451.244 125.867, 448.427 118.495, 444.245 112.805 C 442.100 109.887, 439.909 106.706, 439.375 105.736 C 438.515 104.172, 435.202 100.223, 427.794 91.932 C 426.532 90.519, 423.475 87.823, 421 85.941 C 418.525 84.058, 415.704 81.797, 414.731 80.917 C 412.904 79.264, 396.170 70.808, 392.334 69.601 C 391.143 69.226, 389.997 69.274, 389.789 69.709 M 528.014 73.217 C 524.263 79.386, 524.060 91.793, 527.665 94.568 C 528.674 95.345, 530.400 95.872, 531.500 95.740 C 533.299 95.524, 533.476 94.846, 533.261 89 C 533.129 85.425, 533.529 80.290, 534.149 77.588 C 535.155 73.207, 535.079 72.531, 533.447 71.338 C 530.815 69.413, 530.198 69.626, 528.014 73.217 M 291.500 75.951 C 288.660 76.657, 284.976 78.749, 274.886 85.384 C 270.467 88.290, 258.890 99.564, 253.698 106.017 C 249.385 111.378, 239.952 131.621, 238.844 137.893 C 236.389 151.793, 237.308 150.400, 230 151.307 C 226.425 151.751, 204.825 152.267, 182 152.453 C 159.175 152.639, 138.925 152.816, 137 152.848 C 135.075 152.880, 132.607 152.814, 131.516 152.703 C 129.996 152.547, 129.313 153.367, 128.601 156.200 C 126.886 163.025, 130.475 164.305, 148 163.115 C 153.775 162.723, 180.314 162.736, 206.975 163.143 C 233.637 163.550, 255.613 163.720, 255.812 163.521 C 256.011 163.322, 256.600 159.726, 257.121 155.530 C 259.849 133.559, 274.457 112.224, 297.859 96.032 C 301.533 93.491, 301.460 94.306, 299.364 79.250 C 298.725 74.659, 297.969 74.342, 291.500 75.951 M 335 101.624 C 330.808 102.395, 316.715 107.129, 313 109.015 C 295.426 117.936, 280.961 136.037, 276.649 154.500 C 273.920 166.188, 272.870 175.084, 273.530 180.935 C 275.154 195.324, 279.792 208.711, 286.665 218.838 C 290.577 224.603, 303.337 236.229, 311.134 241.133 C 328.244 251.895, 352.871 254.881, 372.500 248.574 C 380.314 246.064, 382.909 244.732, 392.298 238.410 C 397.264 235.066, 409 224.535, 409 223.422 C 409 223.046, 410.614 220.492, 412.587 217.746 C 415.898 213.137, 421.676 198.522, 424.288 188.150 C 425.853 181.933, 423.811 165.777, 420.003 154.244 C 414.081 136.306, 399.079 117.793, 383.500 109.195 C 381.300 107.981, 376.125 105.804, 372 104.357 C 365.580 102.106, 362.557 101.687, 351 101.446 C 343.575 101.291, 336.375 101.372, 335 101.624 M 648.703 112.577 C 651.130 113.703, 660.796 129.666, 662.374 135.154 C 665.709 146.751, 663.129 159.882, 655.993 167.623 C 652.153 171.789, 651.640 174.348, 654.288 176.127 C 655.961 177.252, 659.094 175.790, 660.739 173.117 C 661.624 171.677, 663.766 168.250, 665.500 165.500 C 670.415 157.702, 671.405 154.321, 671.341 145.560 C 671.276 136.567, 669.776 132.233, 663.544 123.031 C 659.905 117.657, 654.937 113.842, 650 112.632 C 648.625 112.294, 648.041 112.270, 648.703 112.577 M 609.443 119.629 C 604.617 124.746, 601.129 132.507, 600.962 138.500 C 600.561 152.877, 600.834 154.469, 604.714 160.361 C 606.756 163.462, 608.766 166, 609.179 166 C 609.592 166, 610.431 165.064, 611.043 163.919 C 611.944 162.237, 611.675 160.849, 609.639 156.669 C 606.395 150.007, 605.891 148.085, 605.865 142.283 C 605.836 135.867, 609.867 127.350, 615.528 121.863 C 617.988 119.480, 620 117.185, 620 116.765 C 620 116.344, 618.395 116, 616.433 116 C 613.627 116, 612.135 116.775, 609.443 119.629 M 160.030 121.113 C 156.064 122.695, 151.118 126.870, 149.499 130.002 C 146.429 135.938, 148.297 143.784, 153.553 147.033 C 156.679 148.965, 157.338 149.024, 162.464 147.832 C 165.509 147.124, 168 146.198, 168 145.773 C 168 145.348, 169.586 145, 171.525 145 C 174.412 145, 175.231 144.524, 176.050 142.368 C 176.601 140.920, 176.785 138.783, 176.460 137.618 C 175.989 135.931, 176.083 135.805, 176.919 137 C 177.765 138.208, 177.972 137.978, 177.985 135.815 C 178.019 129.813, 175.127 125.887, 167.790 121.977 C 163.628 119.759, 163.466 119.741, 160.030 121.113 M 96.250 125.220 C 93.619 126.489, 93.475 127.808, 95.449 132.532 C 96.760 135.670, 97.279 136, 100.899 136 C 106.935 136, 108.431 130.986, 103.860 126.080 C 101.733 123.797, 99.682 123.565, 96.250 125.220 M 363.244 125.669 C 361.440 126.389, 362.752 128, 365.142 128 C 366.261 128, 366.989 127.468, 366.771 126.813 C 366.301 125.404, 364.979 124.975, 363.244 125.669 M 622.293 128.015 C 615.991 130.552, 611.873 144.895, 615.509 151.646 C 617.057 154.522, 620.445 156.888, 621.502 155.832 C 621.695 155.639, 621.256 152.624, 620.527 149.131 C 618.918 141.421, 619.640 138.407, 624.434 132.806 C 626.395 130.515, 628 128.271, 628 127.820 C 628 126.772, 625.138 126.870, 622.293 128.015 M 642 127.400 C 642 127.619, 643.575 130.139, 645.500 133 C 648.638 137.663, 649 138.897, 649 144.929 C 649 150.769, 648.594 152.270, 645.922 156.304 C 642.648 161.247, 642.456 163.628, 645.191 165.351 C 647.500 166.804, 649.759 164.626, 653.398 157.439 C 657.396 149.542, 657.432 140.273, 653.488 133.883 C 652 131.472, 650.071 128.938, 649.200 128.250 C 647.767 127.118, 642 126.437, 642 127.400 M 339.500 133.491 C 336.750 134.307, 332.407 135.458, 329.848 136.049 C 320.463 138.217, 300.165 154.485, 295.908 163.250 C 293.114 169.003, 293.910 170.263, 300.425 170.403 C 304.688 170.494, 305.330 170.127, 311.722 163.924 C 318.381 157.463, 328.815 150.128, 334.265 148.078 C 338.926 146.325, 354.959 145.634, 361.138 146.921 C 367.599 148.267, 379.826 156.540, 388.792 165.633 C 394.594 171.517, 396.415 172.035, 400.365 168.927 C 407.360 163.425, 399.781 153.168, 380.588 142.163 C 365.690 133.620, 350.132 130.337, 339.500 133.491 M 628.687 141.805 C 625.345 145.293, 625.300 147.391, 628.500 150.591 C 631.519 153.610, 631.568 154.176, 629.006 156.495 C 626.359 158.890, 624.857 164.493, 626.032 167.585 C 627.090 170.366, 631.014 170.893, 632.984 168.519 C 634.233 167.014, 633.993 161.024, 632.553 157.745 C 631.939 156.346, 632.566 155.662, 635.641 154.382 C 637.763 153.498, 639.831 152.263, 640.235 151.638 C 641.589 149.541, 641.053 142.196, 639.429 140.571 C 636.869 138.011, 631.759 138.598, 628.687 141.805 M 552.500 150.092 C 544.800 151.126, 533.550 152.715, 527.500 153.623 C 520.242 154.712, 506.123 155.490, 486 155.910 C 464.367 156.361, 454.847 156.913, 453.253 157.807 C 452.018 158.500, 449.993 160.911, 448.753 163.164 C 447.514 165.418, 445.902 168.350, 445.172 169.680 C 444.442 171.010, 443.788 174.491, 443.720 177.415 C 443.577 183.527, 445.104 186.451, 450.649 190.683 C 454.125 193.336, 454.898 193.496, 463.920 193.425 C 469.189 193.384, 479.913 192.980, 487.750 192.527 C 499.681 191.837, 502.001 191.931, 502.006 193.102 C 502.026 198.207, 504.941 203.748, 508.718 205.862 C 510.200 206.691, 510.185 207.091, 508.539 210.560 C 507.133 213.522, 506.865 215.790, 507.312 220.926 C 508.229 231.464, 509.906 235.120, 515.064 237.834 C 519.328 240.078, 520.082 240.143, 534.500 239.527 C 554.689 238.664, 586.235 236.255, 588.041 235.437 C 592.880 233.247, 607.359 212.951, 611.067 203.160 C 615.021 192.720, 614.868 191.379, 608.840 183.684 C 605.903 179.935, 602.476 175.435, 601.224 173.684 C 599.973 171.933, 597.479 169.150, 595.682 167.500 C 593.885 165.850, 591.697 163.459, 590.819 162.186 C 589.941 160.914, 586.656 157.201, 583.520 153.936 C 577.829 148.011, 577.808 148, 572.159 148.106 C 569.047 148.164, 560.200 149.058, 552.500 150.092 M 340.332 158.851 C 332.246 161.646, 321.205 170.717, 317.824 177.345 C 314.972 182.936, 315.004 187.775, 317.909 190.127 C 321.610 193.124, 323.322 192.422, 326.964 186.412 C 333.950 174.886, 345.760 168.513, 355.352 171.094 C 361.764 172.820, 367.337 176.549, 370.884 181.488 C 374.263 186.193, 377.288 187.647, 381.500 186.589 C 384.025 185.956, 384.573 184.359, 384.087 179.054 C 383.823 176.173, 378.985 170.310, 374.597 167.554 C 372.894 166.484, 370.287 164.621, 368.804 163.414 C 365.500 160.725, 353.951 156.988, 349.082 157.033 C 347.112 157.051, 343.175 157.869, 340.332 158.851 M 569.778 157.556 C 569.472 157.861, 563.209 158.583, 555.861 159.160 C 547.715 159.799, 541.339 160.808, 539.525 161.746 C 533.784 164.714, 520.031 166.089, 491 166.595 C 475.325 166.868, 461.496 167.303, 460.268 167.560 C 459.041 167.818, 457.325 169.405, 456.455 171.087 C 454.286 175.282, 455.382 179.654, 459.183 181.965 C 461.813 183.564, 463.956 183.734, 476.838 183.366 C 484.902 183.136, 497.928 182.467, 505.784 181.879 C 520.814 180.755, 523 181.147, 523 184.962 C 523 186.655, 519.231 189, 516.510 189 C 515.742 189, 514.435 189.968, 513.607 191.151 C 512.269 193.061, 512.267 193.704, 513.588 196.865 C 515.729 201.988, 517.517 203.605, 522.626 205.035 C 527.348 206.357, 531.118 210.282, 529.357 212.043 C 528.841 212.559, 526.278 213.382, 523.663 213.871 C 521.047 214.359, 518.672 214.994, 518.385 215.282 C 517.615 216.052, 519.842 227.242, 520.995 228.395 C 523.274 230.674, 581.530 228.010, 585.637 225.440 C 586.812 224.704, 588.813 222.392, 590.084 220.301 C 591.355 218.210, 592.671 216.275, 593.008 216 C 594.535 214.757, 600.793 203.078, 602.001 199.219 C 603.721 193.724, 602.494 190.980, 593.281 179.714 C 576.929 159.718, 572.135 155.198, 569.778 157.556 M 92.381 163.354 C 87.921 165.473, 86.860 166.592, 84.131 172.053 C 80.229 179.861, 80.213 182.469, 84.030 188.232 C 90.643 198.215, 104.366 198.641, 113.388 189.143 C 115.849 186.552, 116.292 185.246, 116.388 180.301 C 116.538 172.553, 114.836 169.151, 108.819 165.170 C 102.093 160.719, 98.713 160.346, 92.381 163.354 M 23.562 174.925 C 20.955 177.603, 17.327 179.846, 12.824 181.567 C 6.163 184.113, 5.960 184.297, 2.981 190.539 L -0.060 196.912 0.099 219.706 C 0.243 240.316, 0.437 242.729, 2.129 244.885 C 4.195 247.518, 4.633 253.948, 2.960 257.075 C 1.039 260.664, 4.892 264.089, 19.832 272.075 C 22.482 273.491, 25.628 275.628, 26.825 276.825 C 29.766 279.766, 35.600 279.835, 36.519 276.939 C 37.302 274.474, 39.813 273.343, 46.441 272.471 C 50.585 271.925, 52.037 271.118, 55.441 267.466 C 57.673 265.072, 61.300 262.401, 63.500 261.530 C 67.090 260.110, 67.936 259.044, 71.750 251.140 C 74.088 246.295, 76 241.670, 76 240.863 C 76 240.055, 74.712 237.618, 73.137 235.447 C 71.563 233.276, 70.025 230.375, 69.719 229 C 69.413 227.625, 68.471 224.700, 67.625 222.500 C 65.778 217.694, 65.575 210.816, 67.153 206.454 C 68.186 203.597, 68.031 202.907, 65.654 199.791 C 64.196 197.879, 60.302 194.148, 57.001 191.501 C 51.326 186.949, 51 186.452, 51 182.344 L 51 178 45.750 177.938 C 37.022 177.834, 31.555 176.973, 30.500 175.536 C 29.950 174.786, 29.050 173.433, 28.500 172.528 C 27.631 171.098, 26.983 171.414, 23.562 174.925 M 170.500 174.226 C 152.900 174.625, 136.563 175.219, 134.196 175.545 L 129.892 176.139 130.196 180.319 L 130.500 184.500 168.500 184.561 C 189.400 184.594, 217.637 184.987, 231.250 185.433 L 256 186.245 256 179.782 L 256 173.318 229.250 173.409 C 214.537 173.459, 188.100 173.827, 170.500 174.226 M 344.961 181.461 C 341.341 183.431, 339.619 187.154, 340.400 191.320 C 341.296 196.097, 343.310 197.446, 349.415 197.357 C 356.200 197.259, 358.759 195.799, 359.552 191.575 C 360.484 186.608, 359.339 184.214, 354.967 181.983 C 350.433 179.670, 348.444 179.566, 344.961 181.461 M 32.054 183.152 C 30.218 187.495, 29.171 196.450, 29.716 203.148 C 30.164 208.649, 30.624 209.967, 32.379 210.783 C 34.598 211.815, 37.437 216.677, 38.394 221.086 C 38.923 223.522, 39.448 223.727, 47.387 224.599 C 55.203 225.458, 55.956 225.379, 57.709 223.513 C 58.749 222.406, 60.414 221.041, 61.409 220.480 C 64.032 219.001, 64.305 207.314, 61.750 205.882 C 60.788 205.342, 60 204.044, 60 202.997 C 60 199.088, 57.608 195.961, 52.924 193.746 C 48.023 191.430, 46 188.714, 46 184.453 C 46 182.182, 45.636 182, 41.082 182 C 38.377 182, 35.462 181.731, 34.605 181.402 C 33.578 181.008, 32.708 181.604, 32.054 183.152 M 11.588 185.868 C 8.470 186.545, 6.226 190.787, 6.076 196.290 C 6.034 197.824, 5.050 200.942, 3.889 203.217 C 0.662 209.544, 0.364 217.140, 3.005 225.811 C 4.230 229.832, 6.305 234.397, 7.616 235.955 C 10.353 239.208, 10.627 241.788, 8.532 244.559 C 3.648 251.016, 10.393 263.792, 20.550 267.319 C 23.905 268.485, 25.004 268.483, 27.844 267.305 C 31.170 265.925, 31.184 265.890, 30.548 260.709 C 30.196 257.844, 29.868 253.475, 29.819 251 C 29.770 248.525, 29.287 242.733, 28.745 238.130 C 27.772 229.864, 27.467 229.227, 22.572 225.211 C 20.101 223.183, 20.696 218.302, 24 213.500 C 26.096 210.454, 26.984 207.989, 26.947 205.320 C 26.884 200.687, 24.657 187.871, 23.625 186.203 C 22.851 184.950, 16.619 184.777, 11.588 185.868 M 429.882 188.200 C 429.655 192.588, 430.102 193.519, 434.170 197.139 C 438.167 200.696, 438.244 200.887, 437.547 205.533 C 436.771 210.709, 430.432 225.907, 426.782 231.345 C 421.339 239.452, 415.761 246.076, 413.230 247.441 C 411.728 248.250, 409.375 250.125, 408 251.609 C 406.625 253.092, 402.586 255.614, 399.024 257.213 C 395.462 258.811, 392.382 260.285, 392.180 260.486 C 391.978 260.688, 391.428 269.549, 390.957 280.177 C 389.791 306.462, 392.312 343.354, 395.451 345.959 C 396.364 346.717, 397.443 346.319, 399.407 344.499 L 402.107 341.996 401.483 330.748 C 401.140 324.562, 400.441 316.205, 399.929 312.178 C 398.717 302.625, 398.748 291.600, 400.007 284.963 C 400.561 282.042, 401.189 279.477, 401.404 279.263 C 401.618 279.049, 404.124 278.259, 406.973 277.507 C 415.486 275.261, 436 260.428, 441.986 252.190 C 443.460 250.160, 445.426 247.875, 446.354 247.111 C 448.731 245.153, 458.681 226.307, 459.876 221.500 C 460.422 219.300, 461.524 214.872, 462.324 211.660 C 464.013 204.880, 465.385 202.984, 467.250 204.853 C 468.137 205.741, 468.522 210.668, 468.576 221.803 C 468.618 230.436, 469.023 246.279, 469.477 257.009 C 470.208 274.322, 470.112 276.882, 468.629 279.750 C 465.595 285.618, 464.805 285.789, 437.500 286.477 C 423.750 286.823, 411.504 287.312, 410.287 287.563 C 408.118 288.010, 408.085 288.250, 408.601 299.760 C 409.415 317.919, 408.188 316.331, 420.796 315.548 C 426.683 315.183, 439.600 314.511, 449.500 314.055 C 467.019 313.248, 467.687 313.138, 474.500 309.905 C 483.746 305.519, 490.133 299.033, 494.721 289.373 L 498.340 281.752 498.153 267.796 C 498.051 260.119, 497.532 249.713, 497.001 244.669 C 496.469 239.626, 496.027 229.155, 496.017 221.399 C 496.008 213.412, 495.502 205.870, 494.852 204.005 L 493.703 200.711 480.102 201.574 C 458.509 202.944, 456.267 202.784, 448.966 199.350 C 445.410 197.677, 440.308 194.327, 437.630 191.904 C 430.912 185.829, 430.026 185.405, 429.882 188.200 M 210 197.036 C 199.275 197.420, 178.324 197.794, 163.441 197.867 C 143.470 197.965, 135.970 198.327, 134.810 199.250 C 133.945 199.938, 132.946 202.464, 132.589 204.865 L 131.940 209.229 146.720 208.623 C 154.849 208.289, 178.415 207.900, 199.090 207.758 C 228.143 207.559, 237.025 207.786, 238.203 208.759 C 239.041 209.451, 240.973 213.726, 242.496 218.259 C 244.019 222.792, 245.593 226.950, 245.995 227.500 C 246.396 228.050, 247.010 229.699, 247.360 231.164 C 249.373 239.608, 266.464 261.425, 274.368 265.643 C 275.945 266.484, 280.334 269.384, 284.121 272.086 C 287.909 274.789, 291.474 277, 292.043 277 C 292.613 277, 294.844 277.900, 297 279 C 299.156 280.100, 302.706 281, 304.889 281 C 310.849 281, 311.685 282.464, 312.438 294.211 C 314.378 324.507, 318.429 332.112, 318.451 305.500 C 318.472 281.621, 317.371 263.619, 315.864 263.170 C 315.114 262.947, 311.899 261.467, 308.720 259.882 C 305.541 258.297, 302.469 257, 301.894 257 C 300.551 257, 289.917 248.868, 283.661 243.055 C 272.999 233.150, 263.366 217.755, 258.598 203 L 256.497 196.500 242.999 196.419 C 235.574 196.375, 220.725 196.653, 210 197.036 M 345.500 202.900 C 342.177 204.335, 339.859 207.631, 339.328 211.672 C 338.918 214.800, 339.345 216.172, 341.663 219.175 C 344.644 223.038, 346.565 223.974, 351.500 223.971 C 355.105 223.969, 355.941 223.439, 358.798 219.346 C 361.994 214.768, 361.765 209.107, 358.249 205.739 C 355.265 202.880, 348.852 201.452, 345.500 202.900 M 207.410 228.750 C 207.776 235.213, 208.263 245, 208.491 250.500 C 209.994 286.691, 210.447 289.955, 215.409 300.356 C 220.019 310.020, 232.635 319.631, 243 321.376 C 247.408 322.118, 302.852 320.379, 305.347 319.421 C 307.352 318.651, 307.294 316.492, 304.834 300.294 L 303.740 293.088 275.916 292.794 L 248.093 292.500 244.017 288.519 C 241.776 286.329, 239.521 282.954, 239.008 281.019 C 238.495 279.083, 237.590 265.350, 236.997 250.500 C 236.405 235.650, 235.662 222.037, 235.347 220.250 L 234.773 217 220.758 217 L 206.743 217 207.410 228.750 M 158.142 220.159 C 152.526 222.939, 147.994 229.088, 148.016 233.900 C 148.040 239.095, 151.741 244.890, 156.632 247.389 C 160.455 249.343, 160.809 249.873, 161.373 254.500 C 161.708 257.250, 161.987 261.131, 161.991 263.125 C 161.999 266.278, 161.642 266.824, 159.250 267.317 C 153.919 268.417, 147.623 273.407, 145.044 278.577 C 141.594 285.494, 141.745 291.833, 145.541 299.395 C 148.995 306.276, 153.403 308.942, 161.384 308.978 C 169.931 309.016, 173.757 307.244, 178.247 301.165 C 183.014 294.712, 184.265 290.146, 182.915 284.122 C 181.152 276.253, 172.438 267, 166.790 267 C 165.836 267, 165.507 264.790, 165.527 258.517 L 165.554 250.035 170.299 247.026 C 175.953 243.440, 177.310 240.446, 176.773 232.749 C 176.447 228.076, 175.822 226.413, 173.436 223.876 C 170.834 221.109, 165.458 217.999, 163.282 218.001 C 162.852 218.001, 160.539 218.972, 158.142 220.159 M 34.098 228.602 C 31.685 231.670, 31.182 240.894, 33.166 245.685 C 33.808 247.233, 34.370 252.454, 34.416 257.286 C 34.515 267.602, 35.045 268.265, 42.758 267.711 C 48.720 267.284, 51.941 264.945, 55.128 258.730 C 56.454 256.144, 58.248 254.485, 60.838 253.448 C 63.838 252.248, 65.168 250.809, 67.307 246.446 C 71.608 237.676, 70.735 233.396, 64.869 234.497 C 62.227 234.992, 60.825 234.650, 58.723 232.997 C 57.225 231.819, 56 230.221, 56 229.446 C 56 227.782, 54.078 227.320, 43.848 226.527 C 36.431 225.953, 36.132 226.016, 34.098 228.602 M 103.049 232.848 L 98.690 236.603 102.498 240.301 C 107.013 244.685, 108.384 244.870, 110.657 241.401 C 111.593 239.972, 113.291 238.443, 114.430 238.004 C 116.406 237.242, 116.379 237.159, 113.836 236.160 C 112.370 235.585, 110.890 234.229, 110.547 233.148 C 109.226 228.988, 107.607 228.923, 103.049 232.848 M 369.573 266.881 C 369.274 267.366, 369.461 272.203, 369.989 277.631 C 370.517 283.059, 370.973 294.250, 371.003 302.500 C 371.060 317.820, 372.477 341.776, 373.522 345.068 C 374.219 347.266, 377.231 348.379, 380.057 347.482 C 383.612 346.354, 384.109 342.835, 383.002 326.637 C 382.434 318.312, 381.804 301.756, 381.602 289.846 C 381.401 277.936, 380.932 267.698, 380.559 267.096 C 379.755 265.794, 370.359 265.611, 369.573 266.881 M 327.233 268.750 C 326.407 270.801, 326.407 270.849, 327.226 313 C 327.586 331.538, 328.307 346.681, 328.904 348.250 C 330.150 351.524, 332.708 351.804, 336.208 349.051 L 338.686 347.102 338.212 309.301 C 337.951 288.510, 337.357 270.488, 336.893 269.250 C 336.209 267.425, 335.283 267, 331.993 267 C 329.065 267, 327.741 267.487, 327.233 268.750 M 530.425 268.152 C 527.949 269.342, 523 276.675, 523 279.153 C 523 284.080, 528.165 289, 533.339 289 C 537.906 289, 540.583 287.261, 542.983 282.737 C 545.347 278.282, 545.347 278.279, 543.424 274.995 C 540.101 269.319, 534.324 266.278, 530.425 268.152 M 568.851 268.154 C 563.469 270.075, 562.741 277.832, 567.495 282.586 C 570.559 285.650, 574.124 285.657, 577.672 282.606 C 579.874 280.712, 580.455 279.357, 580.455 276.111 C 580.455 269.675, 575.022 265.950, 568.851 268.154 M 350.652 268.826 L 347.803 269.152 348.388 282.326 C 348.709 289.572, 349.236 306.075, 349.559 319 C 350.186 344.130, 350.920 349.352, 354.061 351.033 C 355.720 351.920, 356.572 351.582, 359.140 349.014 C 362.098 346.056, 362.201 345.671, 361.637 339.714 C 361.314 336.296, 360.790 320, 360.473 303.500 C 360.156 287, 359.699 272.539, 359.458 271.365 C 358.993 269.100, 355.943 268.221, 350.652 268.826 M 91.733 278.750 C 89.747 280.953, 88.636 285.277, 89.420 287.747 C 90.063 289.775, 95.884 293, 98.899 293 C 99.906 293, 101.916 292.067, 103.365 290.927 C 106.256 288.653, 106.916 283.775, 104.718 280.913 C 101.633 276.895, 94.479 275.703, 91.733 278.750 M 155.104 280.535 C 150.943 285.274, 150.890 290.168, 154.939 295.757 C 158.749 301.017, 162.628 302.011, 167.527 298.983 C 173.164 295.499, 175.385 289.564, 172.878 284.684 C 170.235 279.539, 166.777 277, 162.417 277 C 158.850 277, 157.733 277.540, 155.104 280.535" stroke="none" fill="#000000" fill-rule="evenodd"/>
</svg>